<svg xmlns="http://www.w3.org/2000/svg" width="24.327" height="24.622" viewBox="0 0 24.327 24.622">
  <path id="icon-box" d="M80.8,58.12a.431.431,0,0,0-.1-.053l0,0h0L76.32,56.382a.476.476,0,0,0-.149-.056l-7.128-2.742a.5.5,0,0,0-.367,0L57.03,58.064h0l0,0a.431.431,0,0,0-.1.053.513.513,0,0,0-.221.419V73.178a.508.508,0,0,0,.327.476l11.65,4.486a.02.02,0,0,0,.013,0,.4.4,0,0,0,.059.017l.026.007a.561.561,0,0,0,.172,0,.078.078,0,0,0,.026-.007.4.4,0,0,0,.059-.017l.013,0L80.7,73.657a.508.508,0,0,0,.327-.476V58.543A.526.526,0,0,0,80.8,58.12Zm-11.94,4.357L65.826,61.31l10.229-3.934,3.032,1.166Zm0-7.871L71.7,55.7l-10.23,3.937-2.841-1.093Zm-11.144,4.68,3.075,1.182v4.063a.508.508,0,0,0,.327.476l3.455,1.328a.509.509,0,0,0,.185.033.519.519,0,0,0,.291-.089.513.513,0,0,0,.221-.419v-3.67l3.075,1.182V76.917L57.717,72.831ZM80,72.831,69.37,76.917V63.375L80,59.286V72.831Z" transform="translate(-56.7 -53.55)" fill="#fff"/>
</svg>
