<svg xmlns="http://www.w3.org/2000/svg" width="45.265" height="60.863" viewBox="0 0 45.265 60.863">
  <g id="icon-heart" transform="translate(15750.681 2884.508)">
    <path id="Path_1535" data-name="Path 1535" d="M88.612,23.541H67.993A1.9,1.9,0,0,0,65.979,25.3V82.645a2.034,2.034,0,0,0,3.085,1.487L87.54,74.008a2.267,2.267,0,0,1,2.143,0l18.476,10.124a2.035,2.035,0,0,0,3.085-1.487V25.3a1.9,1.9,0,0,0-2.014-1.756Z" transform="translate(-15816.66 -2908.049)" fill="#d8222a"/>
    <g id="Group_1130" data-name="Group 1130" transform="translate(-15747.056 -2874.86)">
      <g id="Group_1125" data-name="Group 1125" transform="translate(0 0)">
        <path id="Path_999" data-name="Path 999" d="M35.476,7a9.815,9.815,0,0,0-7.048,2.979l-2.185,2.252L24.028,9.973a9.8,9.8,0,0,0-14.065.007,11.3,11.3,0,0,0,0,15.176l2.185,2.252,14.1,13.6,14.1-13.6,2.216-2.258a11.3,11.3,0,0,0,0-15.176A9.821,9.821,0,0,0,35.476,7Z" transform="translate(-7.037 -7)" fill="#fff"/>
      </g>
    </g>
  </g>
</svg>
