<svg xmlns="http://www.w3.org/2000/svg" width="479" height="158" viewBox="0 0 479 158">
  <metadata><?xpacket begin="﻿" id="W5M0MpCehiHzreSzNTczkc9d"?>
<x:xmpmeta xmlns:x="adobe:ns:meta/" x:xmptk="Adobe XMP Core 5.6-c142 79.160924, 2017/07/13-01:06:39        ">
   <rdf:RDF xmlns:rdf="http://www.w3.org/1999/02/22-rdf-syntax-ns#">
      <rdf:Description rdf:about=""/>
   </rdf:RDF>
</x:xmpmeta>
                                                                                                    
                                                                                                    
                                                                                                    
                                                                                                    
                                                                                                    
                                                                                                    
                                                                                                    
                                                                                                    
                                                                                                    
                                                                                                    
                                                                                                    
                                                                                                    
                                                                                                    
                                                                                                    
                                                                                                    
                                                                                                    
                                                                                                    
                                                                                                    
                                                                                                    
                                                                                                    
                           
<?xpacket end="w"?></metadata>
<defs>
    <style>
      .cls-1, .cls-2 {
        fill-rule: evenodd;
      }

      .cls-2 {
        fill: #005aaa;
      }
    </style>
  </defs>
  <path id="Forma_1" data-name="Forma 1" class="cls-1" d="M78.813,146.434H78.752l-5.06-16.141H66.865v21.3h4.084V134.076l0.061-.061,5.73,17.576h4.085l5.73-17.576h0.061v17.576H90.7v-21.3H83.873Zm28.413,1.648q-0.03-.885-0.046-1.816t-0.015-2.121v-2.014q0-3.477-1.585-5.049T100.4,135.51a13.166,13.166,0,0,0-2.789.321,12.73,12.73,0,0,0-2.667.87l0.122,3.508a8.612,8.612,0,0,1,2.286-1.251,7.393,7.393,0,0,1,2.561-.458,4.065,4.065,0,0,1,2.682.733,3.377,3.377,0,0,1,.853,2.655h-2.255a22.933,22.933,0,0,0-2.7.167,7.757,7.757,0,0,0-2.576.748A5.178,5.178,0,0,0,94,144.45a4.789,4.789,0,0,0-.762,2.838,4.119,4.119,0,0,0,.472,2,4.652,4.652,0,0,0,1.234,1.464,5.361,5.361,0,0,0,1.752.9,6.83,6.83,0,0,0,2.027.3,5.7,5.7,0,0,0,1.417-.182,6.292,6.292,0,0,0,1.357-.519,5.02,5.02,0,0,0,1.173-.855,5.235,5.235,0,0,0,.9-1.159h0.06c0.02,0.245.036,0.595,0.046,1.053a7.484,7.484,0,0,0,.137,1.3h3.6q-0.062-.917-0.107-1.77T107.226,148.082Zm-3.947-2.014a3.594,3.594,0,0,1-.686,1.495,3.654,3.654,0,0,1-1.2,1.022,3.883,3.883,0,0,1-3.505-.076,1.59,1.59,0,0,1-.747-1.465,2.154,2.154,0,0,1,.457-1.449,2.924,2.924,0,0,1,1.127-.809,5.512,5.512,0,0,1,1.463-.366,13.051,13.051,0,0,1,1.493-.092h1.768A8.781,8.781,0,0,1,103.279,146.068Zm1.905-16.965h-4.176l-2.53,4.454h2.53Zm13.621,14.05a6,6,0,0,0-1.707-.808q-0.928-.273-1.706-0.534a5.618,5.618,0,0,1-1.311-.61,1.092,1.092,0,0,1-.533-0.961,1.434,1.434,0,0,1,.228-0.824,1.927,1.927,0,0,1,.564-0.549,2.07,2.07,0,0,1,.762-0.29,4.834,4.834,0,0,1,.854-0.077,9.411,9.411,0,0,1,1.92.169,13.721,13.721,0,0,1,1.737.5l0.274-3.081q-0.975-.213-1.981-0.4a14.074,14.074,0,0,0-2.469-.183,9.1,9.1,0,0,0-2.3.29,6.094,6.094,0,0,0-1.966.885,4.545,4.545,0,0,0-1.371,1.51,4.389,4.389,0,0,0-.519,2.2,4.123,4.123,0,0,0,.534,2.259,4.227,4.227,0,0,0,1.311,1.311,6.047,6.047,0,0,0,1.707.733q0.928,0.245,1.707.518a4.976,4.976,0,0,1,1.31.671,1.359,1.359,0,0,1,.533,1.16,1.534,1.534,0,0,1-.274.946,1.994,1.994,0,0,1-.686.58,3.283,3.283,0,0,1-.868.305,4.369,4.369,0,0,1-.854.091,7.62,7.62,0,0,1-2.057-.275,10.884,10.884,0,0,1-1.966-.761l-0.244,3.355a21.546,21.546,0,0,0,2.3.489,15.1,15.1,0,0,0,2.332.182,10.262,10.262,0,0,0,2.438-.289,6.541,6.541,0,0,0,2.1-.9,4.724,4.724,0,0,0,1.478-1.586,4.638,4.638,0,0,0,.564-2.35,4.31,4.31,0,0,0-.534-2.274A4.594,4.594,0,0,0,118.805,143.153Zm22.357-7.277-3.779,11.443h-0.061l-3.9-11.443h-4.389l5.822,15.715h4.6l5.792-15.715h-4.085Zm18.014,12.206q-0.031-.885-0.046-1.816t-0.015-2.121v-2.014q0-3.477-1.585-5.049t-5.182-1.572a13.163,13.163,0,0,0-2.789.321,12.74,12.74,0,0,0-2.667.87l0.122,3.508a8.63,8.63,0,0,1,2.286-1.251,7.394,7.394,0,0,1,2.56-.458,4.07,4.07,0,0,1,2.683.733,3.381,3.381,0,0,1,.853,2.655H153.14a22.942,22.942,0,0,0-2.7.167,7.763,7.763,0,0,0-2.576.748,5.184,5.184,0,0,0-1.92,1.647,4.79,4.79,0,0,0-.762,2.838,4.121,4.121,0,0,0,.473,2,4.652,4.652,0,0,0,1.234,1.464,5.363,5.363,0,0,0,1.753.9,6.825,6.825,0,0,0,2.026.3,5.711,5.711,0,0,0,1.418-.182,6.264,6.264,0,0,0,1.356-.519,5,5,0,0,0,1.174-.855,5.2,5.2,0,0,0,.9-1.159h0.061c0.02,0.245.035,0.595,0.046,1.053a7.294,7.294,0,0,0,.137,1.3h3.6q-0.061-.917-0.107-1.77T159.176,148.082Zm-3.947-2.014a3.594,3.594,0,0,1-.686,1.495,3.664,3.664,0,0,1-1.2,1.022,3.883,3.883,0,0,1-3.5-.076,1.589,1.589,0,0,1-.747-1.465,2.153,2.153,0,0,1,.457-1.449,2.924,2.924,0,0,1,1.127-.809,5.513,5.513,0,0,1,1.464-.366,13.051,13.051,0,0,1,1.493-.092H155.4A8.781,8.781,0,0,1,155.229,146.068ZM170.1,135.51a3.465,3.465,0,0,0-1.677.412,5.234,5.234,0,0,0-1.326,1.008,5.1,5.1,0,0,0-.9,1.281,3.793,3.793,0,0,0-.4,1.235h-0.061v-3.57h-3.627v15.715H166.2v-5.767q0-.855.045-1.953a7.83,7.83,0,0,1,.366-2.09,4.191,4.191,0,0,1,.991-1.678,2.558,2.558,0,0,1,1.92-.687,5.765,5.765,0,0,1,1.051.092,2.628,2.628,0,0,1,.778.243v-4.118a2.959,2.959,0,0,0-.641-0.107Q170.4,135.509,170.1,135.51Zm2.721-2.5H176.9V129.1h-4.085v3.905Zm0,18.583H176.9V135.876h-4.085v15.715Zm20.794-10.39a8.092,8.092,0,0,0-1.2-3.006,5.927,5.927,0,0,0-2.286-1.968,8.1,8.1,0,0,0-3.627-.717,7.337,7.337,0,0,0-3.2.657,6.355,6.355,0,0,0-2.27,1.785,7.813,7.813,0,0,0-1.357,2.639,11.044,11.044,0,0,0-.457,3.219,8.087,8.087,0,0,0,2.149,6.026,8.243,8.243,0,0,0,6.05,2.12,12.523,12.523,0,0,0,2.957-.319,10.2,10.2,0,0,0,2.438-.932V147.38a17.814,17.814,0,0,1-2.438,1.114,7.952,7.952,0,0,1-2.774.472,4.656,4.656,0,0,1-3.124-1.022A4.1,4.1,0,0,1,183.112,145h10.85A19.46,19.46,0,0,0,193.612,141.2Zm-10.5.992a4.754,4.754,0,0,1,1.021-2.64,3.186,3.186,0,0,1,2.606-1.053,3.231,3.231,0,0,1,1.463.306,2.916,2.916,0,0,1,1,.809,3.459,3.459,0,0,1,.595,1.174,7.04,7.04,0,0,1,.259,1.4h-6.949Zm23.527-4.486h-0.061a5.931,5.931,0,0,0-2.027-1.663,6.114,6.114,0,0,0-2.667-.534,6.464,6.464,0,0,0-3.063.671,5.661,5.661,0,0,0-2.042,1.8,7.639,7.639,0,0,0-1.128,2.609,13.373,13.373,0,0,0-.351,3.1,13.57,13.57,0,0,0,.351,3.113,7.8,7.8,0,0,0,1.128,2.64,5.718,5.718,0,0,0,2.042,1.83,6.336,6.336,0,0,0,3.063.686,7.145,7.145,0,0,0,2.683-.488,5.14,5.14,0,0,0,2.133-1.647h0.061v1.77h3.963V128.706h-4.085v9Zm-0.213,7.705a5.756,5.756,0,0,1-.595,1.647,3.6,3.6,0,0,1-1.112,1.236,2.909,2.909,0,0,1-1.707.488,2.77,2.77,0,0,1-1.677-.488,3.393,3.393,0,0,1-1.051-1.251,6.241,6.241,0,0,1-.549-1.648,9.152,9.152,0,0,1-.167-1.709,9.855,9.855,0,0,1,.152-1.677,5.233,5.233,0,0,1,.549-1.618,3.786,3.786,0,0,1,1.036-1.221,2.649,2.649,0,0,1,1.646-.488,2.933,2.933,0,0,1,1.677.474,3.813,3.813,0,0,1,1.142,1.2,5.393,5.393,0,0,1,.641,1.617,7.823,7.823,0,0,1,.2,1.708A8.734,8.734,0,0,1,206.426,145.412Zm20.366,2.67q-0.03-.885-0.046-1.816t-0.015-2.121v-2.014q0-3.477-1.585-5.049t-5.181-1.572a13.163,13.163,0,0,0-2.789.321,12.721,12.721,0,0,0-2.667.87l0.122,3.508a8.6,8.6,0,0,1,2.286-1.251,7.39,7.39,0,0,1,2.56-.458,4.065,4.065,0,0,1,2.682.733,3.377,3.377,0,0,1,.854,2.655h-2.256a22.942,22.942,0,0,0-2.7.167,7.756,7.756,0,0,0-2.576.748,5.168,5.168,0,0,0-1.92,1.647,4.79,4.79,0,0,0-.762,2.838,4.121,4.121,0,0,0,.472,2,4.655,4.655,0,0,0,1.235,1.464,5.358,5.358,0,0,0,1.752.9,6.831,6.831,0,0,0,2.027.3,5.717,5.717,0,0,0,1.418-.182,6.3,6.3,0,0,0,1.356-.519,5,5,0,0,0,1.173-.855,5.235,5.235,0,0,0,.9-1.159h0.06c0.02,0.245.036,0.595,0.046,1.053a7.484,7.484,0,0,0,.137,1.3h3.6q-0.061-.917-0.107-1.77T226.792,148.082Zm-3.947-2.014a3.594,3.594,0,0,1-.686,1.495,3.654,3.654,0,0,1-1.2,1.022,3.883,3.883,0,0,1-3.505-.076,1.591,1.591,0,0,1-.747-1.465,2.158,2.158,0,0,1,.457-1.449,2.928,2.928,0,0,1,1.128-.809,5.506,5.506,0,0,1,1.463-.366,13.055,13.055,0,0,1,1.494-.092h1.768A8.78,8.78,0,0,1,222.845,146.068Zm17.282-8.361h-0.061a5.931,5.931,0,0,0-2.027-1.663,6.114,6.114,0,0,0-2.667-.534,6.464,6.464,0,0,0-3.063.671,5.661,5.661,0,0,0-2.042,1.8,7.639,7.639,0,0,0-1.128,2.609,13.373,13.373,0,0,0-.351,3.1,13.57,13.57,0,0,0,.351,3.113,7.8,7.8,0,0,0,1.128,2.64,5.718,5.718,0,0,0,2.042,1.83,6.336,6.336,0,0,0,3.063.686,7.145,7.145,0,0,0,2.683-.488,5.14,5.14,0,0,0,2.133-1.647h0.061v1.77h3.963V128.706h-4.085v9Zm-0.213,7.705a5.756,5.756,0,0,1-.595,1.647,3.6,3.6,0,0,1-1.112,1.236,2.909,2.909,0,0,1-1.707.488,2.77,2.77,0,0,1-1.677-.488,3.393,3.393,0,0,1-1.051-1.251,6.241,6.241,0,0,1-.549-1.648,9.152,9.152,0,0,1-.167-1.709,9.855,9.855,0,0,1,.152-1.677,5.233,5.233,0,0,1,.549-1.618,3.786,3.786,0,0,1,1.036-1.221,2.649,2.649,0,0,1,1.646-.488,2.933,2.933,0,0,1,1.677.474,3.813,3.813,0,0,1,1.142,1.2,5.393,5.393,0,0,1,.641,1.617,7.823,7.823,0,0,1,.2,1.708A8.734,8.734,0,0,1,239.914,145.412Zm28.437,2.67q-0.03-.885-0.046-1.816t-0.015-2.121v-2.014q0-3.477-1.585-5.049t-5.181-1.572a13.163,13.163,0,0,0-2.789.321,12.721,12.721,0,0,0-2.667.87l0.122,3.508a8.624,8.624,0,0,1,2.285-1.251,7.4,7.4,0,0,1,2.561-.458,4.065,4.065,0,0,1,2.682.733,3.377,3.377,0,0,1,.854,2.655h-2.256a22.959,22.959,0,0,0-2.7.167,7.758,7.758,0,0,0-2.575.748,5.184,5.184,0,0,0-1.92,1.647,4.79,4.79,0,0,0-.762,2.838,4.11,4.11,0,0,0,.473,2,4.639,4.639,0,0,0,1.234,1.464,5.363,5.363,0,0,0,1.753.9,6.815,6.815,0,0,0,2.026.3,5.717,5.717,0,0,0,1.418-.182,6.284,6.284,0,0,0,1.356-.519,4.979,4.979,0,0,0,1.173-.855,5.143,5.143,0,0,0,.9-1.159h0.062c0.019,0.245.035,0.595,0.045,1.053a7.386,7.386,0,0,0,.138,1.3h3.6q-0.062-.917-0.106-1.77T268.351,148.082Zm-3.947-2.014a3.594,3.594,0,0,1-.686,1.495,3.654,3.654,0,0,1-1.2,1.022,3.883,3.883,0,0,1-3.5-.076,1.589,1.589,0,0,1-.747-1.465,2.158,2.158,0,0,1,.457-1.449,2.928,2.928,0,0,1,1.128-.809,5.513,5.513,0,0,1,1.464-.366,13.038,13.038,0,0,1,1.493-.092h1.768A8.78,8.78,0,0,1,264.4,146.068Zm36.805-8.788a4.029,4.029,0,0,0-1.524-1.3,5.357,5.357,0,0,0-2.408-.474,6.29,6.29,0,0,0-2.819.687,4.518,4.518,0,0,0-2.087,2.09,4.48,4.48,0,0,0-1.829-2.12,5.6,5.6,0,0,0-2.8-.657,6.062,6.062,0,0,0-2.423.55,5.276,5.276,0,0,0-2.24,2.013h-0.061v-2.2H279.2v15.715h4.084v-7.629a16.7,16.7,0,0,1,.092-1.678,6.355,6.355,0,0,1,.411-1.724,3.43,3.43,0,0,1,.929-1.343,2.372,2.372,0,0,1,1.616-.534,2.252,2.252,0,0,1,1.356.351,2.156,2.156,0,0,1,.7.87,3.227,3.227,0,0,1,.259,1.144c0.019,0.417.03,0.809,0.03,1.175v9.368h4.084v-7.629c0-.507.031-1.068,0.092-1.678a6.356,6.356,0,0,1,.412-1.724,3.42,3.42,0,0,1,.929-1.343,2.368,2.368,0,0,1,1.616-.534,2.254,2.254,0,0,1,1.356.351,2.162,2.162,0,0,1,.7.87,3.184,3.184,0,0,1,.258,1.144q0.032,0.625.032,1.175v9.368h4.084v-9.918a12.252,12.252,0,0,0-.229-2.44A5.117,5.117,0,0,0,301.209,137.28Zm17.563,3.921a8.092,8.092,0,0,0-1.2-3.006,5.927,5.927,0,0,0-2.286-1.968,8.1,8.1,0,0,0-3.627-.717,7.337,7.337,0,0,0-3.2.657,6.359,6.359,0,0,0-2.271,1.785,7.829,7.829,0,0,0-1.356,2.639,11.044,11.044,0,0,0-.457,3.219,8.087,8.087,0,0,0,2.149,6.026,8.244,8.244,0,0,0,6.051,2.12,12.514,12.514,0,0,0,2.956-.319,10.169,10.169,0,0,0,2.438-.932V147.38a17.814,17.814,0,0,1-2.438,1.114,7.952,7.952,0,0,1-2.774.472,4.658,4.658,0,0,1-3.124-1.022A4.1,4.1,0,0,1,308.271,145h10.852A19.458,19.458,0,0,0,318.772,141.2Zm-10.5.992a4.761,4.761,0,0,1,1.021-2.64A3.187,3.187,0,0,1,311.9,138.5a3.235,3.235,0,0,1,1.464.306,2.916,2.916,0,0,1,1,.809,3.457,3.457,0,0,1,.594,1.174,7.041,7.041,0,0,1,.26,1.4h-6.95Zm26.188-4.913a4.574,4.574,0,0,0-1.661-1.3,5.609,5.609,0,0,0-2.408-.474,7.116,7.116,0,0,0-2.9.565,5.532,5.532,0,0,0-2.255,1.937h-0.061v-2.136h-3.872v15.715h4.086V143.9a9.847,9.847,0,0,1,.152-1.663,5.994,5.994,0,0,1,.548-1.694,3.767,3.767,0,0,1,1.1-1.328,2.892,2.892,0,0,1,1.8-.534,2.3,2.3,0,0,1,1.509.443,2.7,2.7,0,0,1,.792,1.1,4.654,4.654,0,0,1,.305,1.448c0.03,0.531.046,1.038,0.046,1.526v8.392h4.084v-9.918a9.345,9.345,0,0,0-.305-2.44A5.322,5.322,0,0,0,334.459,137.28Zm17.466,0.458a7.778,7.778,0,0,0-2.622-1.648,8.983,8.983,0,0,0-3.245-.58,8.866,8.866,0,0,0-3.232.58,7.807,7.807,0,0,0-2.606,1.648,7.443,7.443,0,0,0-1.737,2.608,9.229,9.229,0,0,0-.625,3.494,9.092,9.092,0,0,0,.549,3.189,7.264,7.264,0,0,0,4.175,4.3,9.088,9.088,0,0,0,3.476.625,9.211,9.211,0,0,0,3.49-.625,7.234,7.234,0,0,0,4.19-4.3,9.092,9.092,0,0,0,.548-3.189,9.249,9.249,0,0,0-.624-3.494A7.457,7.457,0,0,0,351.925,137.738Zm-2.088,7.567a5.593,5.593,0,0,1-.625,1.754,3.462,3.462,0,0,1-1.2,1.251,3.639,3.639,0,0,1-1.95.473,3.492,3.492,0,0,1-1.921-.488,3.578,3.578,0,0,1-1.2-1.266,5.6,5.6,0,0,1-.624-1.739,10.26,10.26,0,0,1-.184-1.938,6.134,6.134,0,0,1,.244-1.724,4.663,4.663,0,0,1,.732-1.495,3.7,3.7,0,0,1,1.218-1.053,3.6,3.6,0,0,1,1.739-.4,3.682,3.682,0,0,1,1.751.4,3.72,3.72,0,0,1,1.235,1.038,4.48,4.48,0,0,1,.731,1.479,6.253,6.253,0,0,1,.245,1.755A10.581,10.581,0,0,1,349.837,145.305Zm14.611-9.8a3.459,3.459,0,0,0-1.676.412,5.216,5.216,0,0,0-1.326,1.008,5.108,5.108,0,0,0-.9,1.281,3.833,3.833,0,0,0-.395,1.235h-0.062v-3.57h-3.627v15.715h4.084v-5.767q0-.855.046-1.953a7.87,7.87,0,0,1,.366-2.09,4.214,4.214,0,0,1,.991-1.678,2.561,2.561,0,0,1,1.921-.687,5.773,5.773,0,0,1,1.051.092,2.621,2.621,0,0,1,.777.243v-4.118a2.94,2.94,0,0,0-.64-0.107Q364.752,135.509,364.448,135.51Zm24.674,2.472a5.661,5.661,0,0,0-2.042-1.8,6.47,6.47,0,0,0-3.063-.671,5.694,5.694,0,0,0-3,.717,5.526,5.526,0,0,0-1.874,1.877h-0.061v-2.228h-3.9V158h4.085V149.79h0.061a5.436,5.436,0,0,0,2.18,1.74,6.688,6.688,0,0,0,2.423.426,6.5,6.5,0,0,0,3.109-.686,5.822,5.822,0,0,0,2.072-1.83,7.668,7.668,0,0,0,1.143-2.64,13.626,13.626,0,0,0,.35-3.113,13.428,13.428,0,0,0-.35-3.1A7.659,7.659,0,0,0,389.122,137.982Zm-2.957,7.414a6.24,6.24,0,0,1-.548,1.648,3.4,3.4,0,0,1-1.051,1.251,2.774,2.774,0,0,1-1.677.488,2.909,2.909,0,0,1-1.707-.488,3.6,3.6,0,0,1-1.113-1.236,5.815,5.815,0,0,1-.594-1.647,8.659,8.659,0,0,1-.183-1.725,7.765,7.765,0,0,1,.2-1.708,5.365,5.365,0,0,1,.64-1.617,3.8,3.8,0,0,1,1.143-1.2,2.927,2.927,0,0,1,1.676-.474,2.647,2.647,0,0,1,1.646.488,3.789,3.789,0,0,1,1.037,1.221,5.285,5.285,0,0,1,.548,1.618,9.958,9.958,0,0,1,.152,1.677A9.155,9.155,0,0,1,386.165,145.4Zm14.743-9.886a3.461,3.461,0,0,0-1.676.412,5.193,5.193,0,0,0-1.325,1.008,5.057,5.057,0,0,0-.9,1.281,3.813,3.813,0,0,0-.4,1.235h-0.062v-3.57h-3.626v15.715h4.084v-5.767q0-.855.046-1.953a7.83,7.83,0,0,1,.365-2.09,4.214,4.214,0,0,1,.991-1.678,2.561,2.561,0,0,1,1.921-.687,5.773,5.773,0,0,1,1.051.092,2.621,2.621,0,0,1,.777.243v-4.118a2.94,2.94,0,0,0-.64-0.107C401.315,135.515,401.111,135.51,400.908,135.51Zm16.31,5.691a8.091,8.091,0,0,0-1.2-3.006,5.938,5.938,0,0,0-2.287-1.968,8.1,8.1,0,0,0-3.627-.717,7.337,7.337,0,0,0-3.2.657,6.355,6.355,0,0,0-2.27,1.785,7.793,7.793,0,0,0-1.356,2.639,11.044,11.044,0,0,0-.458,3.219,8.09,8.09,0,0,0,2.149,6.026,8.244,8.244,0,0,0,6.051,2.12,12.514,12.514,0,0,0,2.956-.319,10.169,10.169,0,0,0,2.438-.932V147.38a17.814,17.814,0,0,1-2.438,1.114,7.946,7.946,0,0,1-2.773.472,4.661,4.661,0,0,1-3.125-1.022A4.1,4.1,0,0,1,406.718,145h10.851A19.381,19.381,0,0,0,417.218,141.2Zm-10.5.992a4.746,4.746,0,0,1,1.021-2.64,3.186,3.186,0,0,1,2.606-1.053,3.234,3.234,0,0,1,1.463.306,2.919,2.919,0,0,1,1.006.809,3.457,3.457,0,0,1,.594,1.174,7.041,7.041,0,0,1,.26,1.4h-6.95Zm22.375,6.346a6.436,6.436,0,0,1-1.752.244,4.191,4.191,0,0,1-1.875-.4,3.638,3.638,0,0,1-1.326-1.082,4.765,4.765,0,0,1-.777-1.617,7.535,7.535,0,0,1-.26-2.03,5.544,5.544,0,0,1,1.113-3.6,3.694,3.694,0,0,1,3.033-1.374,6.353,6.353,0,0,1,1.585.169,7.789,7.789,0,0,1,1.189.411l0.365-3.234a13.848,13.848,0,0,0-1.783-.382,15.184,15.184,0,0,0-2.179-.137,7.811,7.811,0,0,0-3.247.641,6.871,6.871,0,0,0-2.377,1.739,7.576,7.576,0,0,0-1.462,2.578,9.837,9.837,0,0,0-.5,3.189,10.841,10.841,0,0,0,.488,3.326,7.306,7.306,0,0,0,1.448,2.624,6.6,6.6,0,0,0,2.423,1.724,8.545,8.545,0,0,0,3.384.625,18.3,18.3,0,0,0,2.24-.121,10.874,10.874,0,0,0,1.844-.4l-0.183-3.387A9.106,9.106,0,0,1,429.093,148.539Zm3.382-15.531h4.084V129.1h-4.084v3.905Zm0,18.583h4.084V135.876h-4.084v15.715Zm22.15-11.245a7.443,7.443,0,0,0-1.737-2.608,7.774,7.774,0,0,0-2.621-1.648,8.988,8.988,0,0,0-3.246-.58,8.857,8.857,0,0,0-3.231.58,7.787,7.787,0,0,0-2.606,1.648,7.416,7.416,0,0,0-1.737,2.608,9.209,9.209,0,0,0-.626,3.494,9.092,9.092,0,0,0,.549,3.189,7.264,7.264,0,0,0,4.175,4.3,9.091,9.091,0,0,0,3.476.625,9.211,9.211,0,0,0,3.49-.625,7.239,7.239,0,0,0,4.191-4.3,9.114,9.114,0,0,0,.548-3.189A9.229,9.229,0,0,0,454.625,140.346Zm-3.825,4.959a5.593,5.593,0,0,1-.625,1.754,3.454,3.454,0,0,1-1.2,1.251,3.639,3.639,0,0,1-1.95.473,3.492,3.492,0,0,1-1.921-.488,3.578,3.578,0,0,1-1.2-1.266,5.6,5.6,0,0,1-.624-1.739,10.344,10.344,0,0,1-.184-1.938,6.134,6.134,0,0,1,.244-1.724,4.684,4.684,0,0,1,.732-1.495,3.7,3.7,0,0,1,1.219-1.053,3.6,3.6,0,0,1,1.738-.4,3.689,3.689,0,0,1,1.752.4,3.74,3.74,0,0,1,1.235,1.038,4.519,4.519,0,0,1,.731,1.479,6.253,6.253,0,0,1,.244,1.755A10.581,10.581,0,0,1,450.8,145.305Z"/>
  <path id="Forma_1_copia" data-name="Forma 1 copia" class="cls-2" d="M472.753,50.557V50.5a2.154,2.154,0,0,0,1.692-2.113,2.049,2.049,0,0,0-.794-1.79,4.393,4.393,0,0,0-2.682-.677,16.019,16.019,0,0,0-2.443.218v8.692h1.355V51.106h0.973a1.629,1.629,0,0,1,1.886,1.5,6.081,6.081,0,0,0,.573,2.231h1.46a7.367,7.367,0,0,1-.563-2.154C474.038,51.413,473.514,50.707,472.753,50.557Zm-1.87-.54h-1V47.085a5.706,5.706,0,0,1,1-.064c1.567,0,2.121.758,2.121,1.517C473,49.6,472.029,50.017,470.883,50.017Zm0.486-7.516h-0.028a7.806,7.806,0,0,0,0,15.611A7.807,7.807,0,0,0,471.369,42.5Zm0,14.414a6.6,6.6,0,0,1-.028-13.186h0.028A6.6,6.6,0,0,1,471.369,56.914ZM173.514,106.662h18.938v-47.9H173.514v47.9Zm59.181-24.8c-0.118,25.917,26.011,24.8,26.011,24.8L258.57,91.571s-9.462,1.289-9.7-9.34c-0.119-7.042,3.507-9.9,7.439-8.645,2.61,0.844,2.359,6.219,2.359,6.219l0.037,26.857h17.975V58.741l-18.93.018S232.7,57.26,232.7,81.864ZM361.88,58.741s-25.04-1.481-25.04,23.124c-0.144,25.917,25.982,24.8,25.982,24.8l-0.037-16.106s-9.686,2.3-9.762-8.325c-0.028-7.042,3.8-10.174,7.408-8.645,2.514,1.087,2.354,6.219,2.354,6.219l0.037,26.857h17.991L380.8,58.741H361.88ZM192.444,41.267h-18.93V52.538h18.93V41.267Zm122.442,65.4h18.922V58.741H314.886v47.921Zm89.029-65.4H384.993V90.038s-0.317,9.141,3.707,13.395c4.417,4.629,15.215,3.229,15.215,3.229h10.708V89.191h-8.006s-0.783.649-1.784-.994a10.668,10.668,0,0,1-.918-4.376V73.97h10.708V58.741H403.915V41.267ZM314.886,52.538h18.922V41.267H314.886V52.538ZM220.008,70.016a8.6,8.6,0,0,1-1.367-6.561c0.688-4.148.8-4.7,0.8-4.7h-20.02a25.133,25.133,0,0,0-2.164,12.193c0.675,6.4,9.3,15.8,9.3,15.8s4.522,5.04,4.4,9.36c-0.076,3.206-.952,4.143-3.558,4.143H195.878v21.812H212.2s15.627-.553,17.429-17.093c1.779-16.525-2.754-24.23-3.986-25.956C224.405,77.356,220.008,70.016,220.008,70.016ZM101.6,73.97l-0.1-15.211H76.212s-22.189.161-22.189,23.854,20.669,24.049,20.669,24.049H98.309l3.968-17.472H91.634ZM77.616,89.191H76.892s-3.62.2-3.526-6.759C73.517,73.407,78,73.97,85.149,73.97Zm84.507-28.9c-2.46,1.69-3.5,5.355-3.5,5.355V58.759H139.711v47.9H158.62V88.91s-0.3-8.123,4.01-10.511a11.528,11.528,0,0,1,8.2-1.291V58.759S164.607,58.594,162.123,60.295Zm-35.1,0c-2.464,1.69-3.489,5.355-3.489,5.355V58.759H104.585v47.9h18.948V88.91s-0.343-8.123,4-10.511a11.583,11.583,0,0,1,8.221-1.291V58.759S129.478,58.594,127.022,60.295ZM430.1,58.579L416.248,82.613,430.1,106.635H457.82l13.855-24.022L457.82,58.579H430.1Zm18.061,31.3h-8.414l-4.219-7.266,4.219-7.306h8.414l4.219,7.306ZM58.174,52.951S72.22,54.652,72.1,37.634l-6.772.013H44.135V14.424l14.039-.1H72.1C72.1,0,58.174.124,58.174,0.124L31.823,0.113S19.892,0.935,11.4,13.15C4.9,22.491,6.2,35.236,6.2,35.236s-6.2-1.011-6.665,7.622C-1,52.563,6.225,52.94,6.225,52.94V67.56a6.55,6.55,0,0,0,6.252,5.24c4.816,0.187,6.207-5.868,6.207-5.868V59.749A40.744,40.744,0,0,1,21.7,62.9a14.563,14.563,0,0,1,3.055,8.933v64.405s1.064,10.086,10.348,10.086c9.267,0,9.72-10.826,9.72-10.826L44.812,53ZM39.443,136.092a4.438,4.438,0,1,1-8.875,0v-8.876a4.438,4.438,0,1,1,8.875,0v8.876Zm263.84-75.833c-2.446,1.686-3.5,5.361-3.5,5.361v-6.9H280.861v47.918h18.917V88.867s-0.3-8.125,4.025-10.525a11.538,11.538,0,0,1,8.2-1.279V58.717S305.773,58.563,303.283,60.259Z"/>
</svg>
